<?xml version="1.0" encoding="UTF-8" standalone="no"?>
<!DOCTYPE svg PUBLIC "-//W3C//DTD SVG 1.1//EN"
 "http://www.w3.org/Graphics/SVG/1.1/DTD/svg11.dtd">
<!-- Generated by graphviz version 16.1.0 (20260904.0139)
 -->
<!-- Title: Oracle to Fabric Demo
02 Network topology | Central US target Pages: 1 -->
<svg width="2169pt" height="1388pt"
 viewBox="0.00 0.00 2169.00 1388.00" xmlns="http://www.w3.org/2000/svg" xmlns:xlink="http://www.w3.org/1999/xlink">
<g id="graph0" class="graph" transform="scale(1 1) rotate(0) translate(32.4 1355.4)">
<title>Oracle to Fabric Demo
02 Network topology | Central US target</title>
<polygon fill="white" stroke="none" points="-32.4,32.4 -32.4,-1355.4 2136.6,-1355.4 2136.6,32.4 -32.4,32.4"/>
<text xml:space="preserve" text-anchor="middle" x="1052.1" y="-23.55" font-family="Segoe UI" font-size="11.00" fill="#2d3436">Oracle to Fabric Demo</text>
<text xml:space="preserve" text-anchor="middle" x="1052.1" y="-8.55" font-family="Segoe UI" font-size="11.00" fill="#2d3436">02 Network topology | Central US target</text>
<g id="clust1" class="cluster">
<title>cluster_Azure tenant | Identifier not stored</title>
<path fill="#f3f8fd" stroke="#0078d4" stroke-width="2" d="M372.9,-46C372.9,-46 1946.4,-46 1946.4,-46 1952.4,-46 1958.4,-52 1958.4,-58 1958.4,-58 1958.4,-1270 1958.4,-1270 1958.4,-1276 1952.4,-1282 1946.4,-1282 1946.4,-1282 372.9,-1282 372.9,-1282 366.9,-1282 360.9,-1276 360.9,-1270 360.9,-1270 360.9,-58 360.9,-58 360.9,-52 366.9,-46 372.9,-46"/>
<text xml:space="preserve" text-anchor="middle" x="479.9" y="-1264.7" font-family="Segoe UI Semibold" font-size="14.00" fill="#2d3436">Azure tenant | Identifier not stored</text>
</g>
<g id="clust2" class="cluster">
<title>cluster_Subscription | Identifier not stored</title>
<path fill="#f8fbfe" stroke="#4f9bd4" stroke-width="2" d="M380.9,-54C380.9,-54 1938.4,-54 1938.4,-54 1944.4,-54 1950.4,-60 1950.4,-66 1950.4,-66 1950.4,-1234 1950.4,-1234 1950.4,-1240 1944.4,-1246 1938.4,-1246 1938.4,-1246 380.9,-1246 380.9,-1246 374.9,-1246 368.9,-1240 368.9,-1234 368.9,-1234 368.9,-66 368.9,-66 368.9,-60 374.9,-54 380.9,-54"/>
<text xml:space="preserve" text-anchor="middle" x="476.65" y="-1229.65" font-family="Segoe UI Semibold" font-size="13.00" fill="#2d3436">Subscription | Identifier not stored</text>
</g>
<g id="clust3" class="cluster">
<title>cluster_Central US</title>
<path fill="#fcfdfe" stroke="#85b7dc" stroke-width="2" d="M388.9,-62C388.9,-62 1930.4,-62 1930.4,-62 1936.4,-62 1942.4,-68 1942.4,-74 1942.4,-74 1942.4,-1200 1942.4,-1200 1942.4,-1206 1936.4,-1212 1930.4,-1212 1930.4,-1212 388.9,-1212 388.9,-1212 382.9,-1212 376.9,-1206 376.9,-1200 376.9,-1200 376.9,-74 376.9,-74 376.9,-68 382.9,-62 388.9,-62"/>
<text xml:space="preserve" text-anchor="middle" x="413.4" y="-1196.6" font-family="Segoe UI Semibold" font-size="12.00" fill="#2d3436">Central US</text>
</g>
<g id="clust4" class="cluster">
<title>cluster_demo&#45;oracle&#45;vnet | 10.60.0.0/16</title>
<path fill="#eef7ee" stroke="#2e7d32" stroke-width="2" d="M664.2,-70C664.2,-70 1735.1,-70 1735.1,-70 1741.1,-70 1747.1,-76 1747.1,-82 1747.1,-82 1747.1,-993 1747.1,-993 1747.1,-999 1741.1,-1005 1735.1,-1005 1735.1,-1005 664.2,-1005 664.2,-1005 658.2,-1005 652.2,-999 652.2,-993 652.2,-993 652.2,-82 652.2,-82 652.2,-76 658.2,-70 664.2,-70"/>
<text xml:space="preserve" text-anchor="middle" x="746.08" y="-989.6" font-family="Segoe UI Semibold" font-size="12.00" fill="#2d3436">demo&#45;oracle&#45;vnet | 10.60.0.0/16</text>
</g>
<g id="clust5" class="cluster">
<title>cluster_snet&#45;demo&#45;oracle | 10.60.1.0/24</title>
<path fill="#fafcfa" stroke="#81a784" stroke-width="1.5" d="M996.53,-554C996.53,-554 1727.1,-554 1727.1,-554 1733.1,-554 1739.1,-560 1739.1,-566 1739.1,-566 1739.1,-747 1739.1,-747 1739.1,-753 1733.1,-759 1727.1,-759 1727.1,-759 996.53,-759 996.53,-759 990.53,-759 984.53,-753 984.53,-747 984.53,-747 984.53,-566 984.53,-566 984.53,-560 990.53,-554 996.53,-554"/>
<text xml:space="preserve" text-anchor="middle" x="1070.9" y="-744.55" font-family="Segoe UI" font-size="11.00" fill="#2d3436">snet&#45;demo&#45;oracle | 10.60.1.0/24</text>
</g>
<g id="clust6" class="cluster">
<title>cluster_snet&#45;demo&#45;gateway | 10.60.2.0/24</title>
<path fill="#fafcfa" stroke="#81a784" stroke-width="1.5" d="M859.25,-78C859.25,-78 1322.95,-78 1322.95,-78 1328.95,-78 1334.95,-84 1334.95,-90 1334.95,-90 1334.95,-271 1334.95,-271 1334.95,-277 1328.95,-283 1322.95,-283 1322.95,-283 859.25,-283 859.25,-283 853.25,-283 847.25,-277 847.25,-271 847.25,-271 847.25,-90 847.25,-90 847.25,-84 853.25,-78 859.25,-78"/>
<text xml:space="preserve" text-anchor="middle" x="938.88" y="-268.55" font-family="Segoe UI" font-size="11.00" fill="#2d3436">snet&#45;demo&#45;gateway | 10.60.2.0/24</text>
</g>
<g id="clust7" class="cluster">
<title>cluster_snet&#45;demo&#45;private&#45;endpoints | 10.60.3.0/24</title>
<path fill="#fafcfa" stroke="#81a784" stroke-width="1.5" d="M1173.8,-767C1173.8,-767 1380.3,-767 1380.3,-767 1386.3,-767 1392.3,-773 1392.3,-779 1392.3,-779 1392.3,-960 1392.3,-960 1392.3,-966 1386.3,-972 1380.3,-972 1380.3,-972 1173.8,-972 1173.8,-972 1167.8,-972 1161.8,-966 1161.8,-960 1161.8,-960 1161.8,-779 1161.8,-779 1161.8,-773 1167.8,-767 1173.8,-767"/>
<text xml:space="preserve" text-anchor="middle" x="1277.05" y="-957.55" font-family="Segoe UI" font-size="11.00" fill="#2d3436">snet&#45;demo&#45;private&#45;endpoints | 10.60.3.0/24</text>
</g>
<g id="clust8" class="cluster">
<title>cluster_Legend</title>
<path fill="#f7f7f7" stroke="#9e9e9e" d="M20,-1203C20,-1203 242.4,-1203 242.4,-1203 248.4,-1203 254.4,-1209 254.4,-1215 254.4,-1215 254.4,-1303 254.4,-1303 254.4,-1309 248.4,-1315 242.4,-1315 242.4,-1315 20,-1315 20,-1315 14,-1315 8,-1309 8,-1303 8,-1303 8,-1215 8,-1215 8,-1209 14,-1203 20,-1203"/>
<text xml:space="preserve" text-anchor="middle" x="32.5" y="-1301.5" font-family="Segoe UI" font-size="10.00" fill="#2d3436">Legend</text>
</g>
<!-- 7f2e5e562b5d4a38a54a87c5c0593499 -->
<g id="node1" class="node">
<title>7f2e5e562b5d4a38a54a87c5c0593499</title>
<image xlink:href="C:\Users\frgisber\AppData\Local\Programs\Python\Python312\Lib\site-packages\resources/onprem/client\user.png" width="100.8px" height="100.8px" preserveAspectRatio="xMinYMin meet" x="80.8" y="-1146.4"/>
<text xml:space="preserve" text-anchor="middle" x="131.2" y="-1032.35" font-family="Segoe UI" font-size="10.00" fill="#2d3436">Administrator</text>
</g>
<!-- 2b0862c4c54e4c93aaba27990525fb40 -->
<g id="node3" class="node">
<title>2b0862c4c54e4c93aaba27990525fb40</title>
<image xlink:href="C:\Users\frgisber\AppData\Local\Programs\Python\Python312\Lib\site-packages\resources/azure/general\management-portal.png" width="100.8px" height="100.8px" preserveAspectRatio="xMinYMin meet" x="384.9" y="-1146.4"/>
<text xml:space="preserve" text-anchor="middle" x="435.3" y="-1032.35" font-family="Segoe UI" font-size="10.00" fill="#2d3436">Azure portal</text>
</g>
<!-- 7f2e5e562b5d4a38a54a87c5c0593499&#45;&gt;2b0862c4c54e4c93aaba27990525fb40 -->
<g id="edge1" class="edge">
<title>7f2e5e562b5d4a38a54a87c5c0593499&#45;&gt;2b0862c4c54e4c93aaba27990525fb40</title>
<path fill="none" stroke="#757575" stroke-dasharray="5,2" d="M181.41,-1096C233.97,-1096 317.31,-1096 373.83,-1096"/>
<polygon fill="#757575" stroke="#757575" points="373.6,-1099.5 383.6,-1096 373.6,-1092.5 373.6,-1099.5"/>
<text xml:space="preserve" text-anchor="middle" x="315.65" y="-1100.15" font-family="Sans-Serif" font-size="13.00" fill="#2d3436">HTTPS 443</text>
</g>
<!-- 16e557437b2149459c6f5b1f3944b18a -->
<g id="node2" class="node">
<title>16e557437b2149459c6f5b1f3944b18a</title>
<image xlink:href="C:\Users\frgisber\AppData\Local\Programs\Python\Python312\Lib\site-packages\resources/onprem/network\internet.png" width="100.8px" height="100.8px" preserveAspectRatio="xMinYMin meet" x="2003.4" y="-502.4"/>
<text xml:space="preserve" text-anchor="middle" x="2053.8" y="-388.2" font-family="Segoe UI" font-size="10.00" fill="#2d3436">Oracle and Microsoft</text>
<text xml:space="preserve" text-anchor="middle" x="2053.8" y="-373.95" font-family="Segoe UI" font-size="10.00" fill="#2d3436">public endpoints</text>
</g>
<!-- 81ef21db9ec342e79178be16dd5e0d68 -->
<g id="node4" class="node">
<title>81ef21db9ec342e79178be16dd5e0d68</title>
<image xlink:href="C:\Users\frgisber\repo-oracletofabric\oracletofabric\docs\architecture\icons\azure-bastion.png" width="100.8px" height="100.8px" preserveAspectRatio="xMinYMin meet" x="660.2" y="-1146.4"/>
<text xml:space="preserve" text-anchor="middle" x="710.6" y="-1032.2" font-family="Segoe UI" font-size="10.00" fill="#2d3436">demo&#45;bastion</text>
<text xml:space="preserve" text-anchor="middle" x="710.6" y="-1017.95" font-family="Segoe UI" font-size="10.00" fill="#2d3436">Developer SKU</text>
</g>
<!-- 2b0862c4c54e4c93aaba27990525fb40&#45;&gt;81ef21db9ec342e79178be16dd5e0d68 -->
<g id="edge2" class="edge">
<title>2b0862c4c54e4c93aaba27990525fb40&#45;&gt;81ef21db9ec342e79178be16dd5e0d68</title>
<path fill="none" stroke="#757575" stroke-dasharray="5,2" d="M485.48,-1096C531.29,-1096 599.73,-1096 648.92,-1096"/>
<polygon fill="#757575" stroke="#757575" points="648.84,-1099.5 658.84,-1096 648.84,-1092.5 648.84,-1099.5"/>
<text xml:space="preserve" text-anchor="middle" x="572.95" y="-1100.15" font-family="Sans-Serif" font-size="13.00" fill="#2d3436">Browser session</text>
</g>
<!-- 9b4c16a8abc943a381e4faa1e2bd640c -->
<g id="node5" class="node">
<title>9b4c16a8abc943a381e4faa1e2bd640c</title>
<image xlink:href="C:\Users\frgisber\AppData\Local\Programs\Python\Python312\Lib\site-packages\resources/azure/compute\vm-linux.png" width="100.8px" height="100.8px" preserveAspectRatio="xMinYMin meet" x="992.525" y="-695.4"/>
<text xml:space="preserve" text-anchor="middle" x="1042.93" y="-581.2" font-family="Segoe UI" font-size="10.00" fill="#2d3436">demo&#45;oracle&#45;vm</text>
<text xml:space="preserve" text-anchor="middle" x="1042.93" y="-566.95" font-family="Segoe UI" font-size="10.00" fill="#2d3436">no public IP</text>
</g>
<!-- 81ef21db9ec342e79178be16dd5e0d68&#45;&gt;9b4c16a8abc943a381e4faa1e2bd640c -->
<g id="edge3" class="edge">
<title>81ef21db9ec342e79178be16dd5e0d68&#45;&gt;9b4c16a8abc943a381e4faa1e2bd640c</title>
<path fill="none" stroke="#757575" stroke-dasharray="5,2" d="M760.96,-1046.57C814.47,-990.92 899.74,-895.94 956.05,-802 973.32,-773.19 968.87,-761.72 984.53,-732 985.32,-730.5 986.13,-728.99 986.95,-727.48"/>
<polygon fill="#757575" stroke="#757575" points="989.99,-729.21 991.87,-718.78 983.9,-725.76 989.99,-729.21"/>
<text xml:space="preserve" text-anchor="middle" x="808.13" y="-1012.5" font-family="Sans-Serif" font-size="13.00" fill="#2d3436">SSH</text>
</g>
<!-- 327508cd35584cc4815a041ecacbe150 -->
<g id="node7" class="node">
<title>327508cd35584cc4815a041ecacbe150</title>
<image xlink:href="C:\Users\frgisber\AppData\Local\Programs\Python\Python312\Lib\site-packages\resources/azure/compute\vm-windows.png" width="100.8px" height="100.8px" preserveAspectRatio="xMinYMin meet" x="855.25" y="-219.4"/>
<text xml:space="preserve" text-anchor="middle" x="905.65" y="-105.2" font-family="Segoe UI" font-size="10.00" fill="#2d3436">demo&#45;fabric&#45;gateway&#45;vm</text>
<text xml:space="preserve" text-anchor="middle" x="905.65" y="-90.95" font-family="Segoe UI" font-size="10.00" fill="#2d3436">no public IP</text>
</g>
<!-- 81ef21db9ec342e79178be16dd5e0d68&#45;&gt;327508cd35584cc4815a041ecacbe150 -->
<g id="edge4" class="edge">
<title>81ef21db9ec342e79178be16dd5e0d68&#45;&gt;327508cd35584cc4815a041ecacbe150</title>
<path fill="none" stroke="#757575" stroke-dasharray="5,2" d="M759.45,-1013.46C759.99,-1011.97 760.51,-1010.48 761,-1009 799.88,-891.45 773.7,-854.47 795,-732.5 804.06,-680.64 813.5,-669.07 821.25,-617 844.92,-457.89 795.5,-408.31 847.25,-256 848.24,-253.09 849.35,-250.18 850.56,-247.29"/>
<polygon fill="#757575" stroke="#757575" points="853.71,-248.83 854.72,-238.28 847.35,-245.89 853.71,-248.83"/>
<text xml:space="preserve" text-anchor="middle" x="808.13" y="-736.65" font-family="Sans-Serif" font-size="13.00" fill="#2d3436">RDP</text>
</g>
<!-- e07bdb3347a6444db25069256a75128d -->
<g id="node6" class="node">
<title>e07bdb3347a6444db25069256a75128d</title>
<image xlink:href="C:\Users\frgisber\AppData\Local\Programs\Python\Python312\Lib\site-packages\resources/onprem/database\oracle.png" width="100.8px" height="100.8px" preserveAspectRatio="xMinYMin meet" x="1630.3" y="-695.4"/>
<text xml:space="preserve" text-anchor="middle" x="1680.7" y="-581.2" font-family="Segoe UI" font-size="10.00" fill="#2d3436">Oracle Database Free</text>
<text xml:space="preserve" text-anchor="middle" x="1680.7" y="-566.95" font-family="Segoe UI" font-size="10.00" fill="#2d3436">private listener</text>
</g>
<!-- 9b4c16a8abc943a381e4faa1e2bd640c&#45;&gt;e07bdb3347a6444db25069256a75128d -->
<g id="edge5" class="edge">
<title>9b4c16a8abc943a381e4faa1e2bd640c&#45;&gt;e07bdb3347a6444db25069256a75128d</title>
<path fill="none" stroke="#424242" d="M1093.28,-645C1208.29,-645 1493.81,-645 1619.12,-645"/>
<polygon fill="#424242" stroke="#424242" points="1618.86,-648.5 1628.86,-645 1618.86,-641.5 1618.86,-648.5"/>
<text xml:space="preserve" text-anchor="middle" x="1276.55" y="-649.15" font-family="Sans-Serif" font-size="13.00" fill="#2d3436">Native Oracle service</text>
</g>
<!-- 9ca5fc4837094ea394deda3905d96d7d -->
<g id="node13" class="node">
<title>9ca5fc4837094ea394deda3905d96d7d</title>
<image xlink:href="C:\Users\frgisber\AppData\Local\Programs\Python\Python312\Lib\site-packages\resources/generic/network\router.png" width="100.8px" height="100.8px" preserveAspectRatio="xMinYMin meet" x="1630.3" y="-396.4"/>
<text xml:space="preserve" text-anchor="middle" x="1680.7" y="-282.2" font-family="Segoe UI" font-size="10.00" fill="#2d3436">demo&#45;egress&#45;nat</text>
<text xml:space="preserve" text-anchor="middle" x="1680.7" y="-267.95" font-family="Segoe UI" font-size="10.00" fill="#2d3436">outbound only</text>
</g>
<!-- 9b4c16a8abc943a381e4faa1e2bd640c&#45;&gt;9ca5fc4837094ea394deda3905d96d7d -->
<g id="edge14" class="edge">
<title>9b4c16a8abc943a381e4faa1e2bd640c&#45;&gt;9ca5fc4837094ea394deda3905d96d7d</title>
<path fill="none" stroke="#424242" d="M1093.27,-563.28C1094.14,-561.51 1094.98,-559.75 1095.8,-558 1133.39,-477.59 1091.04,-423.09 1161.8,-369.5 1197.5,-342.47 1490.63,-343.26 1619.41,-344.96"/>
<polygon fill="#424242" stroke="#424242" points="1619.04,-348.45 1629.09,-345.09 1619.14,-341.45 1619.04,-348.45"/>
<text xml:space="preserve" text-anchor="middle" x="1276.55" y="-373.65" font-family="Sans-Serif" font-size="13.00" fill="#2d3436">HTTPS 443 outbound</text>
</g>
<!-- 3ced08b8def444ab9e4e68f7e052df04 -->
<g id="node8" class="node">
<title>3ced08b8def444ab9e4e68f7e052df04</title>
<image xlink:href="C:\Users\frgisber\AppData\Local\Programs\Python\Python312\Lib\site-packages\resources/azure/network\on-premises-data-gateways.png" width="100.8px" height="100.8px" preserveAspectRatio="xMinYMin meet" x="1226.15" y="-219.4"/>
<text xml:space="preserve" text-anchor="middle" x="1276.55" y="-105.2" font-family="Segoe UI" font-size="10.00" fill="#2d3436">On&#45;premises</text>
<text xml:space="preserve" text-anchor="middle" x="1276.55" y="-90.95" font-family="Segoe UI" font-size="10.00" fill="#2d3436">data gateway</text>
</g>
<!-- 327508cd35584cc4815a041ecacbe150&#45;&gt;3ced08b8def444ab9e4e68f7e052df04 -->
<g id="edge6" class="edge">
<title>327508cd35584cc4815a041ecacbe150&#45;&gt;3ced08b8def444ab9e4e68f7e052df04</title>
<path fill="none" stroke="#424242" d="M956.05,-164.25C965.49,-163.52 975.31,-162.88 984.53,-162.5 1064.17,-159.18 1156.15,-162.42 1215.03,-165.4"/>
<polygon fill="#424242" stroke="#424242" points="1214.68,-168.88 1224.84,-165.91 1215.04,-161.89 1214.68,-168.88"/>
<text xml:space="preserve" text-anchor="middle" x="1042.93" y="-166.65" font-family="Sans-Serif" font-size="13.00" fill="#2d3436">Hosts</text>
</g>
<!-- 3ced08b8def444ab9e4e68f7e052df04&#45;&gt;e07bdb3347a6444db25069256a75128d -->
<g id="edge7" class="edge">
<title>3ced08b8def444ab9e4e68f7e052df04&#45;&gt;e07bdb3347a6444db25069256a75128d</title>
<path fill="none" stroke="#424242" d="M1326.8,-201.37C1348.14,-216.61 1372.68,-235.85 1392.3,-256 1427.41,-292.05 1416.05,-320.66 1458.3,-348 1510.84,-382 1552.39,-331.41 1596.3,-376 1651.44,-432 1606.49,-476.55 1628.42,-551.62"/>
<polygon fill="#424242" stroke="#424242" points="1625.05,-552.57 1631.5,-560.98 1631.7,-550.38 1625.05,-552.57"/>
<text xml:space="preserve" text-anchor="middle" x="1527.3" y="-396.65" font-family="Sans-Serif" font-size="13.00" fill="#2d3436">Oracle Net</text>
<text xml:space="preserve" text-anchor="middle" x="1527.3" y="-380.15" font-family="Sans-Serif" font-size="13.00" fill="#2d3436">private port</text>
</g>
<!-- 3ced08b8def444ab9e4e68f7e052df04&#45;&gt;9ca5fc4837094ea394deda3905d96d7d -->
<g id="edge15" class="edge">
<title>3ced08b8def444ab9e4e68f7e052df04&#45;&gt;9ca5fc4837094ea394deda3905d96d7d</title>
<path fill="none" stroke="#424242" d="M1326.86,-190.7C1400.83,-223.26 1540.3,-284.65 1619.95,-319.7"/>
<polygon fill="#424242" stroke="#424242" points="1618.35,-322.82 1628.92,-323.65 1621.17,-316.42 1618.35,-322.82"/>
<text xml:space="preserve" text-anchor="middle" x="1527.3" y="-311.92" font-family="Sans-Serif" font-size="13.00" fill="#2d3436">HTTPS 443 outbound</text>
</g>
<!-- 8ba38c2ab3af49ffbd82faf9705fb489 -->
<g id="node9" class="node">
<title>8ba38c2ab3af49ffbd82faf9705fb489</title>
<image xlink:href="C:\Users\frgisber\AppData\Local\Programs\Python\Python312\Lib\site-packages\resources/azure/network\private-endpoint.png" width="100.8px" height="100.8px" preserveAspectRatio="xMinYMin meet" x="1226.15" y="-908.4"/>
<text xml:space="preserve" text-anchor="middle" x="1276.55" y="-794.2" font-family="Segoe UI" font-size="10.00" fill="#2d3436">Key Vault</text>
<text xml:space="preserve" text-anchor="middle" x="1276.55" y="-779.95" font-family="Segoe UI" font-size="10.00" fill="#2d3436">Private Endpoint</text>
</g>
<!-- 416fadb81bb74d858b4adb3a67fab026 -->
<g id="node15" class="node">
<title>416fadb81bb74d858b4adb3a67fab026</title>
<image xlink:href="C:\Users\frgisber\AppData\Local\Programs\Python\Python312\Lib\site-packages\resources/azure/security\key-vaults.png" width="100.8px" height="100.8px" preserveAspectRatio="xMinYMin meet" x="1630.3" y="-1131.4"/>
<text xml:space="preserve" text-anchor="middle" x="1680.7" y="-1017.35" font-family="Segoe UI" font-size="10.00" fill="#2d3436">Demo Key Vault</text>
</g>
<!-- 8ba38c2ab3af49ffbd82faf9705fb489&#45;&gt;416fadb81bb74d858b4adb3a67fab026 -->
<g id="edge8" class="edge">
<title>8ba38c2ab3af49ffbd82faf9705fb489&#45;&gt;416fadb81bb74d858b4adb3a67fab026</title>
<path fill="none" stroke="#424242" d="M1326.86,-885.34C1400.98,-926.44 1540.87,-1004.02 1620.43,-1048.14"/>
<polygon fill="#424242" stroke="#424242" points="1618.53,-1051.08 1628.98,-1052.87 1621.93,-1044.96 1618.53,-1051.08"/>
<text xml:space="preserve" text-anchor="middle" x="1527.3" y="-1036.98" font-family="Sans-Serif" font-size="13.00" fill="#2d3436">Private Link</text>
</g>
<!-- ca3619d21a2b448e8b4e2621af9d0ddc -->
<g id="node10" class="node">
<title>ca3619d21a2b448e8b4e2621af9d0ddc</title>
<image xlink:href="C:\Users\frgisber\AppData\Local\Programs\Python\Python312\Lib\site-packages\resources/azure/network\dns-private-zones.png" width="100.8px" height="100.8px" preserveAspectRatio="xMinYMin meet" x="855.25" y="-705.4"/>
<text xml:space="preserve" text-anchor="middle" x="905.65" y="-591.2" font-family="Segoe UI" font-size="10.00" fill="#2d3436">Private DNS</text>
<text xml:space="preserve" text-anchor="middle" x="905.65" y="-576.95" font-family="Segoe UI" font-size="10.00" fill="#2d3436">Key Vault and Oracle names</text>
</g>
<!-- ca3619d21a2b448e8b4e2621af9d0ddc&#45;&gt;3ced08b8def444ab9e4e68f7e052df04 -->
<g id="edge10" class="edge">
<title>ca3619d21a2b448e8b4e2621af9d0ddc&#45;&gt;3ced08b8def444ab9e4e68f7e052df04</title>
<path fill="none" stroke="#757575" stroke-dasharray="5,2" d="M947.9,-572.58C993.02,-487.42 1071.1,-353.55 1161.8,-256 1178.17,-238.4 1198.39,-221.68 1217.23,-207.69"/>
<polygon fill="#757575" stroke="#757575" points="1219.1,-210.66 1225.12,-201.94 1214.98,-205 1219.1,-210.66"/>
<text xml:space="preserve" text-anchor="middle" x="1042.93" y="-507.71" font-family="Sans-Serif" font-size="13.00" fill="#2d3436">Resolves Oracle</text>
</g>
<!-- ca3619d21a2b448e8b4e2621af9d0ddc&#45;&gt;8ba38c2ab3af49ffbd82faf9705fb489 -->
<g id="edge9" class="edge">
<title>ca3619d21a2b448e8b4e2621af9d0ddc&#45;&gt;8ba38c2ab3af49ffbd82faf9705fb489</title>
<path fill="none" stroke="#757575" stroke-dasharray="5,2" d="M952.29,-737.76C961.71,-749.82 972.49,-761.14 984.53,-770 1053.55,-820.82 1152.11,-842.57 1214.96,-851.69"/>
<polygon fill="#757575" stroke="#757575" points="1214.38,-855.14 1224.77,-853.04 1215.34,-848.21 1214.38,-855.14"/>
<text xml:space="preserve" text-anchor="middle" x="1042.93" y="-828.49" font-family="Sans-Serif" font-size="13.00" fill="#2d3436">Resolves vault</text>
</g>
<!-- 29995dcb3ef04fa18f15c07536ed1438 -->
<g id="node11" class="node">
<title>29995dcb3ef04fa18f15c07536ed1438</title>
<image xlink:href="C:\Users\frgisber\AppData\Local\Programs\Python\Python312\Lib\site-packages\resources/azure/network\network-security-groups-classic.png" width="100.8px" height="100.8px" preserveAspectRatio="xMinYMin meet" x="660.2" y="-457.4"/>
<text xml:space="preserve" text-anchor="middle" x="710.6" y="-343.35" font-family="Segoe UI" font-size="10.00" fill="#2d3436">Demo subnet NSGs</text>
</g>
<!-- 29995dcb3ef04fa18f15c07536ed1438&#45;&gt;9b4c16a8abc943a381e4faa1e2bd640c -->
<g id="edge11" class="edge">
<title>29995dcb3ef04fa18f15c07536ed1438&#45;&gt;9b4c16a8abc943a381e4faa1e2bd640c</title>
<path fill="none" stroke="#757575" stroke-dasharray="5,2" d="M760.86,-429.83C812.39,-454.99 894.22,-498.63 956.05,-549 965.91,-557.03 975.62,-566.23 984.77,-575.68"/>
<polygon fill="#757575" stroke="#757575" points="982.2,-578.06 991.61,-582.92 987.29,-573.25 982.2,-578.06"/>
</g>
<!-- 29995dcb3ef04fa18f15c07536ed1438&#45;&gt;327508cd35584cc4815a041ecacbe150 -->
<g id="edge12" class="edge">
<title>29995dcb3ef04fa18f15c07536ed1438&#45;&gt;327508cd35584cc4815a041ecacbe150</title>
<path fill="none" stroke="#757575" stroke-dasharray="5,2" d="M760.81,-346.33C787.59,-313.32 820.82,-272.35 848.59,-238.11"/>
<polygon fill="#757575" stroke="#757575" points="850.99,-240.71 854.57,-230.74 845.55,-236.3 850.99,-240.71"/>
</g>
<!-- 41629f894e6d4ce99aad6f60e75839e5 -->
<g id="node12" class="node">
<title>41629f894e6d4ce99aad6f60e75839e5</title>
<image xlink:href="C:\Users\frgisber\AppData\Local\Programs\Python\Python312\Lib\site-packages\resources/azure/network\route-tables.png" width="100.8px" height="100.8px" preserveAspectRatio="xMinYMin meet" x="1226.15" y="-528.4"/>
<text xml:space="preserve" text-anchor="middle" x="1276.55" y="-414.35" font-family="Segoe UI" font-size="10.00" fill="#2d3436">Demo route tables</text>
</g>
<!-- 41629f894e6d4ce99aad6f60e75839e5&#45;&gt;9ca5fc4837094ea394deda3905d96d7d -->
<g id="edge13" class="edge">
<title>41629f894e6d4ce99aad6f60e75839e5&#45;&gt;9ca5fc4837094ea394deda3905d96d7d</title>
<path fill="none" stroke="#757575" stroke-dasharray="5,2" d="M1326.95,-480.73C1392.26,-482.24 1509.25,-477.59 1596.3,-433 1605.33,-428.38 1613.92,-422.39 1621.93,-415.71"/>
<polygon fill="#757575" stroke="#757575" points="1624.08,-418.48 1629.25,-409.23 1619.44,-413.24 1624.08,-418.48"/>
<text xml:space="preserve" text-anchor="middle" x="1527.3" y="-476.98" font-family="Sans-Serif" font-size="13.00" fill="#2d3436">Default route</text>
</g>
<!-- f2a0c0cd0dd243129c49e4752539e236 -->
<g id="node14" class="node">
<title>f2a0c0cd0dd243129c49e4752539e236</title>
<image xlink:href="C:\Users\frgisber\AppData\Local\Programs\Python\Python312\Lib\site-packages\resources/azure/network\public-ip-addresses.png" width="100.8px" height="100.8px" preserveAspectRatio="xMinYMin meet" x="1833.6" y="-396.4"/>
<text xml:space="preserve" text-anchor="middle" x="1884" y="-282.2" font-family="Segoe UI" font-size="10.00" fill="#2d3436">One Standard public IP</text>
<text xml:space="preserve" text-anchor="middle" x="1884" y="-267.95" font-family="Segoe UI" font-size="10.00" fill="#2d3436">NAT only</text>
</g>
<!-- 9ca5fc4837094ea394deda3905d96d7d&#45;&gt;f2a0c0cd0dd243129c49e4752539e236 -->
<g id="edge16" class="edge">
<title>9ca5fc4837094ea394deda3905d96d7d&#45;&gt;f2a0c0cd0dd243129c49e4752539e236</title>
<path fill="none" stroke="#424242" d="M1730.94,-346C1758.58,-346 1793.3,-346 1822.57,-346"/>
<polygon fill="#424242" stroke="#424242" points="1822.4,-349.5 1832.4,-346 1822.4,-342.5 1822.4,-349.5"/>
<text xml:space="preserve" text-anchor="middle" x="1782.35" y="-350.15" font-family="Sans-Serif" font-size="13.00" fill="#2d3436">SNAT</text>
</g>
<!-- f2a0c0cd0dd243129c49e4752539e236&#45;&gt;16e557437b2149459c6f5b1f3944b18a -->
<g id="edge17" class="edge">
<title>f2a0c0cd0dd243129c49e4752539e236&#45;&gt;16e557437b2149459c6f5b1f3944b18a</title>
<path fill="none" stroke="#424242" d="M1933.99,-376.94C1952.69,-388.76 1974.21,-402.35 1993.75,-414.7"/>
<polygon fill="#424242" stroke="#424242" points="1991.86,-417.64 2002.18,-420.03 1995.6,-411.73 1991.86,-417.64"/>
</g>
<!-- bf2be42a3f87499295cca8be177e2197 -->
<g id="node16" class="node">
<title>bf2be42a3f87499295cca8be177e2197</title>
<image xlink:href="C:\Users\frgisber\repo-oracletofabric\oracletofabric\docs\architecture\icons\fabric_48_color.png" width="100.8px" height="100.8px" preserveAspectRatio="xMinYMin meet" x="2003.4" y="-289.4"/>
<text xml:space="preserve" text-anchor="middle" x="2053.8" y="-175.2" font-family="Segoe UI" font-size="10.00" fill="#2d3436">Microsoft Fabric</text>
<text xml:space="preserve" text-anchor="middle" x="2053.8" y="-160.95" font-family="Segoe UI" font-size="10.00" fill="#2d3436">public service endpoints</text>
</g>
<!-- f2a0c0cd0dd243129c49e4752539e236&#45;&gt;bf2be42a3f87499295cca8be177e2197 -->
<g id="edge18" class="edge">
<title>f2a0c0cd0dd243129c49e4752539e236&#45;&gt;bf2be42a3f87499295cca8be177e2197</title>
<path fill="none" stroke="#424242" d="M1933.99,-314.76C1952.77,-302.78 1974.4,-288.99 1994.02,-276.48"/>
<polygon fill="#424242" stroke="#424242" points="1995.64,-279.6 2002.19,-271.27 1991.87,-273.7 1995.64,-279.6"/>
</g>
<!-- bb6525b076e14b73826b6eb0e3e93a43 -->
<g id="node17" class="node">
<title>bb6525b076e14b73826b6eb0e3e93a43</title>
<polygon fill="#ffffff" stroke="#9e9e9e" points="240.4,-1285.02 16,-1285.02 16,-1210.98 246.4,-1210.98 246.4,-1279.02 240.4,-1285.02"/>
<polyline fill="none" stroke="#9e9e9e" points="240.4,-1285.02 240.4,-1279.02"/>
<polyline fill="none" stroke="#9e9e9e" points="246.4,-1279.02 240.4,-1279.02"/>
<text xml:space="preserve" text-anchor="middle" x="131.2" y="-1264.95" font-family="Segoe UI" font-size="9.00" fill="#2d3436">Solid: network or data path</text>
<text xml:space="preserve" text-anchor="middle" x="131.2" y="-1252.2" font-family="Segoe UI" font-size="9.00" fill="#2d3436">Dashed: management, DNS, or policy</text>
<text xml:space="preserve" text-anchor="middle" x="131.2" y="-1239.45" font-family="Segoe UI" font-size="9.00" fill="#2d3436">No workload public IP</text>
<text xml:space="preserve" text-anchor="middle" x="131.2" y="-1226.7" font-family="Segoe UI" font-size="9.00" fill="#2d3436">One outbound&#45;only NAT public IP</text>
</g>
</g>
</svg>
